PathFileType	4	(X/Y/Z)	s11c0202.trc
DataRate	CameraRate	NumFrames	NumMarkers	Units	OrigDataRate	OrigDataStartFrame	OrigNumFrames
200	200	4	48	mm	200	250	2000
Frame#	Time	racr			lacr			c7			jug			rlel			rdr			llel			ldr			s2			lic			ric			lasi			rasi			rpsi			lpsi			rgt			lgt			rth1			rth2			rth3			rth4			rlfc			rmfc			rsh1			rsh2			rsh3			rsh4			rlmal			rcal			rtoe			rmt5			lth1			lth2			lth4			lth3			llfc			lmfc			llmal			lcal			lmt5			lsh1			lsh2			lsh3			lsh4			ltoe			SBIKE			LBIKE			RBIKE			
		X1	Y1	Z1	X2	Y2	Z2	X3	Y3	Z3	X4	Y4	Z4	X5	Y5	Z5	X6	Y6	Z6	X7	Y7	Z7	X8	Y8	Z8	X9	Y9	Z9	X10	Y10	Z10	X11	Y11	Z11	X12	Y12	Z12	X13	Y13	Z13	X14	Y14	Z14	X15	Y15	Z15	X16	Y16	Z16	X17	Y17	Z17	X18	Y18	Z18	X19	Y19	Z19	X20	Y20	Z20	X21	Y21	Z21	X22	Y22	Z22	X23	Y23	Z23	X24	Y24	Z24	X25	Y25	Z25	X26	Y26	Z26	X27	Y27	Z27	X28	Y28	Z28	X29	Y29	Z29	X30	Y30	Z30	X31	Y31	Z31	X32	Y32	Z32	X33	Y33	Z33	X34	Y34	Z34	X35	Y35	Z35	X36	Y36	Z36	X37	Y37	Z37	X38	Y38	Z38	X39	Y39	Z39	X40	Y40	Z40	X41	Y41	Z41	X42	Y42	Z42	X43	Y43	Z43	X44	Y44	Z44	X45	Y45	Z45	X46	Y46	Z46	X47	Y47	Z47	X48	Y48	Z48	
250	1.2500	430.358325	1442.958462	-98.562477	418.070138	1463.885446	-424.633696	325.239683	1564.347203	-257.132746	378.942747	1398.293004	-266.442760	557.853992	1190.564178	-39.833528	771.697696	971.694137	-76.874917	522.631879	1175.407055	-496.706659	769.055858	962.762818	-479.717828	-142.166435	1179.654765	-257.290358	71.753395	1219.409967	-460.533393	77.008634	1213.057904	-62.043178	117.434917	1147.518587	-432.538670	110.179847	1150.674463	-100.846549	-109.181732	1254.269467	-204.097570	-110.167134	1243.860178	-298.823182	44.459929	1071.007395	-39.980992	1.887037	1070.038048	-470.472063	170.886751	998.206253	-42.846708	257.696341	980.029375	-55.006024	321.825899	921.906430	-68.888436	272.214747	1011.935877	-68.296280	414.833719	861.874668	-88.400701	419.662609	843.607937	-215.699900	382.104970	702.311664	-74.422259	384.755244	615.646329	-91.942437	345.158410	537.735351	-93.295828	409.466813	613.525564	-123.211230	303.907334	410.538066	-105.859554	239.350860	393.345875	-153.788217	522.824185	347.151842	-151.921336	452.536980	324.198297	-81.827990	115.083000	970.218436	-491.101490	191.367010	931.122600	-490.272824	216.957277	956.967568	-482.397304	239.559897	854.866023	-488.551805	323.899131	750.367130	-467.344941	341.401853	743.262098	-338.646743	4.923649	469.394404	-418.451692	-65.733706	453.686033	-377.980157	93.951901	324.559211	-451.670677	229.164968	669.894850	-478.138980	187.552412	597.093660	-459.548660	112.159776	552.129691	-448.303466	212.905828	578.202531	-437.038978	192.395090	305.455638	-386.888302	-216.095431	952.487415	-257.004792	-17.795973	80.937294	-460.929815	-17.816731	80.859010	-61.964368	
251	1.2550	430.350346	1442.985051	-98.604348	418.131810	1463.952827	-424.669619	325.111528	1564.387934	-257.144384	378.939355	1398.345129	-266.478000	557.855982	1190.529326	-39.851564	771.713676	971.676041	-76.954289	522.645703	1175.414822	-496.684356	769.038546	962.720898	-479.643805	-142.223975	1179.625129	-257.282472	71.744731	1219.409093	-460.538801	76.993790	1213.088441	-62.073016	117.455691	1147.561997	-432.516842	110.161582	1150.730015	-100.879017	-108.877797	1254.074465	-204.219759	-110.201672	1243.849995	-298.837951	44.482224	1071.057936	-39.979858	1.854364	1070.019680	-470.453405	170.940917	998.333834	-42.877168	257.764847	980.172627	-55.129256	321.909662	922.096897	-68.966211	272.258816	1012.085000	-68.380884	414.919137	862.061638	-88.465887	419.730299	843.831930	-215.825392	382.175225	702.495846	-74.481937	384.807819	615.802917	-91.968337	345.208944	537.900812	-93.315031	409.521500	613.685332	-123.253075	303.933834	410.728398	-105.861228	239.434003	393.530808	-153.797923	522.824655	347.307357	-151.939852	452.554113	324.394242	-81.803897	115.019936	970.176100	-491.095253	191.302001	931.060812	-490.243317	216.869171	956.915230	-482.388397	239.486224	854.782786	-488.529620	323.798187	750.274593	-467.364955	341.260690	743.203406	-338.622154	4.886061	469.225799	-418.450332	-65.766156	453.511622	-377.963322	93.942238	324.424032	-451.649128	229.068216	669.800654	-478.144228	187.477101	596.983767	-459.539632	112.091662	551.997960	-448.290601	212.824912	578.027450	-437.030803	192.387618	305.324817	-386.886103	-216.097154	952.488761	-256.986123	-17.789781	80.937845	-460.918102	-17.808441	80.880365	-61.979892	
252	1.2600	430.329960	1443.012080	-98.660210	418.136427	1464.071790	-424.721018	324.971422	1564.454032	-257.198617	378.918144	1398.415855	-266.499730	557.837250	1190.493115	-39.874260	771.691667	971.646146	-77.039256	522.626571	1175.379045	-496.687433	769.002249	962.678042	-479.540273	-142.307109	1179.586631	-257.260259	71.721678	1219.429400	-460.526269	76.964444	1213.137189	-62.096208	117.448526	1147.618564	-432.502840	110.149807	1150.774910	-100.886850	-109.216944	1254.136286	-204.098279	-110.256002	1243.841306	-298.844475	44.491900	1071.101737	-39.986362	1.824202	1069.995183	-470.441949	170.993893	998.460256	-42.925103	257.800991	980.293321	-55.209726	321.989049	922.263348	-69.034598	272.294388	1012.244300	-68.434286	415.001732	862.208711	-88.542958	419.801918	844.003851	-215.900609	382.262035	702.678379	-74.541591	384.850297	615.995377	-92.016649	345.263144	538.072234	-93.322563	409.575293	613.859572	-123.310494	303.963207	410.923819	-105.847561	239.485911	393.752054	-153.843972	522.853901	347.444790	-151.936296	452.560376	324.546760	-81.806575	114.959809	970.116488	-491.089599	191.219374	931.020810	-490.250229	216.781407	956.818424	-482.371898	239.378153	854.704943	-488.501035	323.668767	750.179950	-467.340642	341.234314	742.971571	-338.629048	4.841144	469.057908	-418.445369	-65.797704	453.333285	-377.987625	93.927540	324.261498	-451.648167	228.961134	669.696955	-478.144460	187.406266	596.889760	-459.578800	112.024505	551.889186	-448.293281	212.763037	578.000776	-437.102070	192.386536	305.201437	-386.885265	-216.089086	952.494211	-257.016321	-17.789584	80.930340	-460.937389	-17.801556	80.868686	-61.981644	
253	1.2650	430.301448	1443.022817	-98.697105	418.143811	1464.133248	-424.775419	324.838713	1564.505935	-257.227162	378.885431	1398.464730	-266.556855	557.826463	1190.468069	-39.915895	771.674332	971.631620	-77.162957	522.587381	1175.358119	-496.737769	768.970210	962.641471	-479.419652	-142.120948	1179.327795	-257.309491	71.656626	1219.414402	-460.486078	76.920842	1213.199567	-62.131642	117.423362	1147.622293	-432.483412	110.126528	1150.804758	-100.903840	-109.273344	1254.139711	-204.096099	-110.314828	1243.831749	-298.854626	44.508024	1071.149360	-39.981860	1.752122	1069.964613	-470.457306	171.036157	998.578226	-42.981197	257.827100	980.421693	-55.258479	322.044720	922.455798	-69.085889	272.314661	1012.422363	-68.516111	415.097317	862.383995	-88.616265	419.865855	844.210127	-215.942711	382.346697	702.882322	-74.587710	384.909867	616.221354	-92.044944	345.312751	538.244622	-93.350822	409.625822	614.027527	-123.367794	303.980909	411.094923	-105.867455	239.138422	394.792752	-152.360822	522.870482	347.589545	-151.924493	452.587798	324.701090	-81.814559	114.879609	970.073201	-491.075739	191.130792	930.964986	-490.243580	216.702421	956.763744	-482.369870	239.277343	854.609298	-488.501771	323.552117	750.085847	-467.336719	341.142553	742.847742	-338.643382	4.784393	468.909967	-418.451983	-65.852365	453.156489	-377.989890	93.908496	324.112815	-451.666436	228.857136	669.581273	-478.132622	187.305005	596.764629	-459.581462	111.949312	551.770382	-448.284318	212.679212	577.916628	-437.096226	192.364885	305.048433	-386.890826	-216.092543	952.482516	-256.974076	-17.796962	80.923124	-460.945760	-17.784890	80.881382	-62.063405	
